<svg id="Logo" xmlns="http://www.w3.org/2000/svg" viewBox="0 0 582.9 419.91"><defs><style>.cls-1{fill:#757575;}.cls-2{fill:#c8dc64;}.cls-3{fill:#82a078;}.cls-4,.cls-7{fill:none;stroke-linecap:round;stroke-linejoin:round;stroke-width:0.5px;}.cls-4{stroke:#82a078;}.cls-5{fill:#64afdc;}.cls-6{fill:#8c78af;}.cls-7{stroke:#8c78af;}</style></defs><g id="Nido"><path class="cls-1" d="M1105.83,553.92a18,18,0,0,0-9.1,2.38,31.69,31.69,0,0,0-7.48,5.88,88.85,88.85,0,0,0-11.48,15.38c-3.42,5.45-6.52,11.1-10,16.61-.89,1.37-1.81,2.74-2.83,4.06s-2,2.55-3.1,3.79c-2.1,2.49-4.27,4.9-6.48,7.28-4.42,4.76-9,9.36-13.66,13.86l-3.51,3.37c-1.2,1.1-2.3,2.24-3.62,3.31a39.26,39.26,0,0,1-3.93,3.12,42.21,42.21,0,0,1-4.18,2.73,83.74,83.74,0,0,1-18.18,7.85,136.78,136.78,0,0,1-19.19,4.34,240.94,240.94,0,0,1-39,2.51,370.25,370.25,0,0,1-39-2.46c-3.24-.38-6.47-.79-9.7-1.28s-6.44-1-9.74-1.68l-1.26-.28c-.44-.1-.94-.25-1.39-.38-.83-.3-1.68-.57-2.49-.91a39,39,0,0,1-4.72-2.32,50.49,50.49,0,0,1-8.36-6.05,79.84,79.84,0,0,1-13.14-15.3,116.18,116.18,0,0,1-9.62-17.48,114.67,114.67,0,0,1-6.56-18.89c-.4-1.65-.74-3.25-1.08-4.84s-.7-3.18-1-4.79l-.94-4.81-.85-4.83c-1.09-6.45-1.93-13-2.46-19.54a137.85,137.85,0,0,1-.29-19.93,83.23,83.23,0,0,1,1.25-10.09,36.7,36.7,0,0,1,3.87-10.13,97.45,97.45,0,0,1,11.67-16.48,272.31,272.31,0,0,1,27.94-27.68q14.76-12.87,30.62-24.38,4-2.87,8.11-5.61,2.07-1.37,4.23-2.68c.75-.44,1.45-.87,2.25-1.31s1.59-.83,2.38-1.21a53.17,53.17,0,0,1,9.94-3.57,36.17,36.17,0,0,1,5.46-.89,28.6,28.6,0,0,1,2.94,0l1.54.13,1.06.1a29.28,29.28,0,0,1,10.75,2.82,54.6,54.6,0,0,1,9,5.4c2.79,2,5.3,4.1,7.85,6.19s5,4.23,7.44,6.38q14.67,12.92,28.57,26.55c4.62,4.58,9.21,9.18,13.68,14a189.12,189.12,0,0,1,12.93,15,94,94,0,0,1,10.73,17.23,50.15,50.15,0,0,1,3.22,10.11c.72,3.35,1.22,6.69,1.6,10a191.3,191.3,0,0,1,1,19.77c.09,6.49,0,13-.07,19.53-.36,13-1.1,26.22-4,39.31a92.17,92.17,0,0,1-6.41,19.2c-.69,1.55-1.56,3-2.34,4.55s-1.76,2.93-2.65,4.4a24.09,24.09,0,0,1-1.93,2.42c-.7.67-1.39,1.43-2.13,2l-2.26,1.71c-.78.48-1.57.94-2.36,1.4-6.36,3.57-13.13,5.16-19.78,6.13-1.68.33-3.34.44-5,.6s-3.34.37-5,.41l-5,.15c-.83,0-1.66.06-2.49.06l-2.48-.06c-3.3-.11-6.62-.1-9.89-.43l-4.91-.38c-.82-.07-1.65-.12-2.46-.2l-2.44-.3c-3.25-.42-6.51-.77-9.75-1.25l-9.67-1.62c-1.61-.25-3.21-.58-4.81-.92l-4.78-1c-3.19-.68-6.4-1.28-9.55-2.1-6.32-1.56-12.66-3-18.94-4.8a226.19,226.19,0,0,1-36.89-13.56,124.1,124.1,0,0,1-17.18-10A76.23,76.23,0,0,1,847.46,606a51.91,51.91,0,0,1-9.85-17.82,78.69,78.69,0,0,1-2.18-9.8c-.29-1.62-.54-3.24-.77-4.86s-.45-3.24-.65-4.86c-.76-6.49-1.36-13-1.63-19.5-.2-3.25-.2-6.51-.31-9.77s0-6.51.06-9.77a304.41,304.41,0,0,1,3.47-38.85l.78-4.81c.25-1.6.52-3.21.86-4.8.65-3.18,1.24-6.37,1.94-9.55,1.43-6.35,3.12-12.62,4.94-18.84,3.66-12.43,7.85-24.69,12.33-36.82s9.36-24.12,14.39-36a.25.25,0,0,1,.33-.14.27.27,0,0,1,.14.33c-4.84,12-9.48,24-13.77,36.21s-8.34,24.46-11.83,36.89C844,459.42,842.37,465.67,841,472c-.65,3.16-1.2,6.34-1.8,9.51-.32,1.59-.56,3.18-.79,4.78l-.72,4.79a303.52,303.52,0,0,0-3,38.58c0,3.22,0,6.45,0,9.67s.16,6.46.39,9.68c.31,6.44.95,12.87,1.76,19.27.21,1.6.41,3.2.67,4.79s.5,3.18.8,4.77a74.34,74.34,0,0,0,2.16,9.39A48.53,48.53,0,0,0,850,603.88a72.3,72.3,0,0,0,14.35,12.8,120,120,0,0,0,16.75,9.58,222.67,222.67,0,0,0,36.38,13c6.22,1.73,12.53,3.11,18.81,4.61,3.13.79,6.31,1.35,9.47,2l4.74,1c1.58.33,3.17.64,4.76.88l9.56,1.55c3.19.46,6.4.79,9.6,1.19l2.4.29c.8.09,1.61.13,2.41.19l4.82.36c3.22.32,6.44.3,9.66.39l2.42.06c.8,0,1.61,0,2.41-.07l4.83-.16c1.61,0,3.21-.27,4.81-.4a47.62,47.62,0,0,0,4.78-.59c6.34-.93,12.7-2.5,18.26-5.66l2.06-1.22,1.89-1.44c.63-.49,1.14-1.09,1.72-1.63s1-1.22,1.47-1.83c.82-1.38,1.69-2.73,2.47-4.13s1.54-2.82,2.18-4.29a88,88,0,0,0,6-18.27c2.77-12.59,3.47-25.54,3.79-38.43.1-6.45.13-12.91,0-19.36a182.66,182.66,0,0,0-1-19.3,94.68,94.68,0,0,0-1.55-9.51,45.51,45.51,0,0,0-2.91-9.12,89.79,89.79,0,0,0-10.22-16.29,186.76,186.76,0,0,0-12.65-14.61c-4.42-4.7-9-9.26-13.59-13.79-9.22-9-18.63-17.89-28.3-26.44-4.85-4.25-9.73-8.5-14.9-12.31s-10.91-7.07-17.35-7.38a24,24,0,0,0-9.46.57,47.73,47.73,0,0,0-9,3.21,70,70,0,0,0-8.3,4.86c-2.69,1.77-5.34,3.61-8,5.48q-15.72,11.29-30.36,24a269.36,269.36,0,0,0-27.54,27.14,92.88,92.88,0,0,0-11.18,15.67,32.13,32.13,0,0,0-3.46,8.88,78.54,78.54,0,0,0-1.21,9.56,133.71,133.71,0,0,0,.23,19.3c.49,6.43,1.32,12.83,2.34,19.2s2.29,12.71,3.67,19a110.08,110.08,0,0,0,6.19,18.27,112.41,112.41,0,0,0,9.17,17,75.63,75.63,0,0,0,12.41,14.7,47.22,47.22,0,0,0,7.73,5.69,35.73,35.73,0,0,0,4.29,2.14c.73.32,1.49.56,2.24.85s1.53.41,2.31.58c3.14.69,6.33,1.22,9.51,1.72s6.39.93,9.59,1.33a363.84,363.84,0,0,0,38.61,2.75c6.45.1,12.91,0,19.35-.3s12.87-.94,19.26-1.86a134.05,134.05,0,0,0,18.9-4,81.41,81.41,0,0,0,17.77-7.41,40.92,40.92,0,0,0,4.06-2.58,38.74,38.74,0,0,0,3.81-3c2.46-2.06,4.78-4.33,7.14-6.52,4.7-4.43,9.31-8.95,13.77-13.62,2.22-2.34,4.41-4.71,6.52-7.14q1.59-1.83,3.11-3.71c1-1.25,1.91-2.58,2.8-3.92,3.53-5.39,6.71-11,10.23-16.46a90.3,90.3,0,0,1,11.86-15.34,33,33,0,0,1,7.76-5.88,18.55,18.55,0,0,1,9.43-2.29.25.25,0,0,1,.24.26.24.24,0,0,1-.25.24Z" transform="translate(-667.22 -372.03)"/><path class="cls-1" d="M1075.92,527.9a184,184,0,0,0,1-24.28,78.2,78.2,0,0,0-1.18-12.05,27.37,27.37,0,0,0-4.92-10.89,74.78,74.78,0,0,0-7.91-9.16c-2.86-2.86-5.87-5.58-8.94-8.23s-6.2-5.22-9.31-7.83l-9.27-7.89-37.17-31.5c-6.21-5.22-12.27-10.68-19.35-14.43a33,33,0,0,0-5.51-2.21,26.58,26.58,0,0,0-5.83-.95c-2-.11-4-.09-6,0a39.44,39.44,0,0,0-17.2,4.3,56.65,56.65,0,0,0-10,6.61c-6.18,5.19-12.4,10.48-18.66,15.64-12.5,10.38-25.12,20.6-37.74,30.82l-2.36,1.91c-.74.64-1.5,1.25-2.21,1.94-1.46,1.33-2.82,2.77-4.15,4.24a74.49,74.49,0,0,0-7.21,9.46,60.74,60.74,0,0,0-5.46,10.44,34,34,0,0,0-1.65,5.51c-.2.9-.33,1.89-.45,2.89l-.39,2.95a115.71,115.71,0,0,0,5.18,47.18c4.9,15.11,12.79,29.33,23.65,40.82a92.88,92.88,0,0,0,18.15,15A91.59,91.59,0,0,0,922.35,608a103.07,103.07,0,0,0,23.13,4.38,132.15,132.15,0,0,0,23.7-.31,125.31,125.31,0,0,0,45.14-13.06c13.88-7.18,26.14-17.57,34.23-30.68a69.64,69.64,0,0,0,5.27-10.23,82.7,82.7,0,0,0,3.67-11,104.18,104.18,0,0,0,3.45-23.08,122.88,122.88,0,0,0-1.51-23.42c-1.25-7.8-3.12-15.52-5.14-23.38-.12-.52-.26-.95-.4-1.39l-.42-1.31c-.3-.87-.49-1.75-.87-2.63l-1.1-2.63c-.36-.87-.72-1.75-1.18-2.61l-1.3-2.59c-.42-.87-.86-1.74-1.37-2.58-1-1.69-1.92-3.41-3-5.07a193.24,193.24,0,0,0-13.85-19.33,292,292,0,0,0-33-34.72c-1.46-1.37-3-2.62-4.52-3.94s-3-2.63-4.58-3.88c-3.12-2.48-6.19-5.06-9.42-7.4l-2.4-1.8-1.19-.89-.6-.45c-.2-.15-.35-.24-.53-.37a18.42,18.42,0,0,0-4.39-2.2,37.49,37.49,0,0,0-10.72-1.62c-.47,0-1,0-1.44,0h-.73c-.24,0-.37,0-.57,0a13.81,13.81,0,0,0-2.28.29,27.93,27.93,0,0,0-5,1.64,65.51,65.51,0,0,0-10,5.53c-3.25,2.15-6.42,4.5-9.53,7s-6.13,5-9.28,7.7c-12.35,10.34-24.22,21.38-36.61,32-6.17,5.34-12.48,10.56-19,15.57-3.26,2.53-6.41,4.92-9.54,7.46s-6.19,5.1-9.12,7.76c-1.46,1.33-2.9,2.67-4.23,4.05a37.75,37.75,0,0,0-3.62,4.3,54.69,54.69,0,0,0-5.83,9.84,50.37,50.37,0,0,0-2,5.29,42.83,42.83,0,0,0-1.24,5.47,34.37,34.37,0,0,0-.39,5.55c0,1.92.09,4,.14,6,.39,16.24.75,32.44,1.53,48.62s1.88,32.33,3.83,48.35c.54,4,1.05,8,1.74,12l.49,3,.58,3c.4,1.95.73,4,1.22,5.81A54,54,0,0,0,843,636.9a45.08,45.08,0,0,0,3,5,32.18,32.18,0,0,0,3.72,4.31,26.75,26.75,0,0,0,9.8,5.58A48.22,48.22,0,0,0,871,654.07c1.89.14,4,.16,6,.25l6.08.2,12.17.39c32.45,1,64.91,1.77,97.37,2.13l24.35.2a225.28,225.28,0,0,0,24.25-1,69.72,69.72,0,0,0,11.88-2.12,21.78,21.78,0,0,0,5.47-2.27A18.21,18.21,0,0,0,1063,648c2.54-3.06,3.78-7,4.47-10.93a74.75,74.75,0,0,0,.92-12.06c.2-16.25,1.17-32.48,2.53-48.66S1074.09,544,1075.92,527.9Zm.49.06c-1.8,16.13-3.61,32.27-4.93,48.45s-2.27,32.38-2.44,48.61a75.41,75.41,0,0,1-.9,12.18c-.69,4-1.94,8.07-4.57,11.29a19.32,19.32,0,0,1-4.6,4.1,22.37,22.37,0,0,1-5.67,2.38,70.15,70.15,0,0,1-12,2.22,225.08,225.08,0,0,1-24.35,1.08l-24.35-.08q-48.72-.27-97.42-1.36c-8.12-.2-16.22-.34-24.36-.64a50.28,50.28,0,0,1-12-2.34,29,29,0,0,1-10.67-6,33.5,33.5,0,0,1-4.06-4.61,49.25,49.25,0,0,1-3.25-5.21,56.4,56.4,0,0,1-4.55-11.36c-1.89-7.93-3.2-16-4.31-24-2.1-16.12-3.35-32.33-4.25-48.55s-1.42-32.45-2-48.67c-.06-2-.15-4.05-.19-6.09a39.32,39.32,0,0,1,.37-6.14,45.51,45.51,0,0,1,1.31-6,52.91,52.91,0,0,1,2.12-5.76,56,56,0,0,1,14.43-19.59c6-5.51,12.37-10.58,18.76-15.57s12.58-10.24,18.7-15.57c12.24-10.65,24.08-21.78,36.49-32.28a198.61,198.61,0,0,1,19.16-15.09,69.75,69.75,0,0,1,10.68-6,31.12,31.12,0,0,1,5.85-1.94,17.89,17.89,0,0,1,3.1-.4c1.05-.05,2.05,0,3.07,0a41.74,41.74,0,0,1,12.13,1.85,23,23,0,0,1,5.55,2.77c1.68,1.18,3.27,2.42,4.91,3.63,3.3,2.38,6.42,5,9.61,7.52,1.59,1.26,3.1,2.62,4.66,3.93s3.12,2.61,4.6,4A297.37,297.37,0,0,1,1034.73,434a195,195,0,0,1,14.17,19.86c1.09,1.73,2,3.53,3.08,5.28.52.88,1,1.79,1.43,2.7l1.37,2.74a28.08,28.08,0,0,1,1.25,2.8l1.17,2.83c.41.94.64,1.94,1,2.91s.65,2,.88,2.94c2,7.87,3.91,15.79,5.18,23.84a128.09,128.09,0,0,1,1.52,24.36,107,107,0,0,1-3.69,24.12,79.78,79.78,0,0,1-9.6,22.42,76.88,76.88,0,0,1-7.27,9.84,83,83,0,0,1-8.63,8.66c-1.51,1.38-3.14,2.61-4.73,3.89s-3.27,2.43-5,3.54-3.44,2.19-5.17,3.26-3.54,2-5.37,2.93a128.18,128.18,0,0,1-46.76,13.16,136.09,136.09,0,0,1-24.39.1,105.43,105.43,0,0,1-23.92-4.75,94.29,94.29,0,0,1-22-10.44,96.66,96.66,0,0,1-18.65-15.7,110.83,110.83,0,0,1-24-42.15,118.23,118.23,0,0,1-4.87-48.26l.42-3c.14-1,.27-2,.51-3a35.27,35.27,0,0,1,1.81-5.87,62.71,62.71,0,0,1,5.75-10.79,71.38,71.38,0,0,1,16.51-17.89c12.71-10.11,25.41-20.22,38-30.48,6.3-5.12,12.52-10.31,18.8-15.49a58.6,58.6,0,0,1,10.23-6.68,40.4,40.4,0,0,1,11.62-3.79,41.66,41.66,0,0,1,6.11-.54c2,0,4.06-.05,6.11.08a28.34,28.34,0,0,1,6.06,1,33,33,0,0,1,5.68,2.32c7.24,3.87,13.3,9.42,19.47,14.65l37,31.65,9.26,7.92c3.1,2.61,6.24,5.19,9.31,7.86s6.08,5.39,8.95,8.27a74.76,74.76,0,0,1,8,9.26,27.88,27.88,0,0,1,5,11.11,78.84,78.84,0,0,1,1.17,12.16A183.41,183.41,0,0,1,1076.41,528Z" transform="translate(-667.22 -372.03)"/></g><g id="Foglie"><path class="cls-2" d="M842.78,444c-2.77,0-8.12-3.17-10.88-7.26a19.54,19.54,0,0,1-3.18-7.8,18.93,18.93,0,0,0-1.77-5.32c-.85-1.62-1-3.05-.42-4a3.29,3.29,0,0,1,3-1.33c2.46,0,6.37,1.55,10,5.89,5.16,6.24,4.92,11.41,4.74,15.19a18.35,18.35,0,0,0,0,3.16,1.32,1.32,0,0,1-.24,1.09A1.5,1.5,0,0,1,842.78,444Z" transform="translate(-667.22 -372.03)"/><path class="cls-3" d="M829.5,418.48h0c2.4,0,6.23,1.53,9.77,5.8,5.1,6.16,4.85,11.28,4.68,15a18.83,18.83,0,0,0,0,3.2,1.16,1.16,0,0,1-.17.9,1.39,1.39,0,0,1-1,.31c-2.71,0-8-3.12-10.67-7.15a19.35,19.35,0,0,1-3.15-7.71,18.87,18.87,0,0,0-1.79-5.39c-.81-1.54-1-2.87-.42-3.77a3,3,0,0,1,2.75-1.21m0-.5c-3,0-4.65,2.15-2.77,5.71,2.44,4.62,1.08,7.4,5,13.15,2.85,4.22,8.32,7.37,11.09,7.37,1.14,0,1.83-.54,1.67-1.77-.49-3.86,2-10.24-4.79-18.48-3.46-4.17-7.39-6-10.16-6Z" transform="translate(-667.22 -372.03)"/><path class="cls-2" d="M861.76,418.73c-.86,0-.93-.38-1-.5-.41-2.17,7.15-9.78,12.57-11.92a23.64,23.64,0,0,1,8.41-2c3,0,4.93,1.16,5.28,3.17.54,3.14-2.87,7.81-9.52,10.21a17.91,17.91,0,0,1-6.11.88c-1.14,0-2.25-.05-3.33-.1s-1.93-.1-2.82-.1a12.81,12.81,0,0,0-2.55.21A4.64,4.64,0,0,1,861.76,418.73Z" transform="translate(-667.22 -372.03)"/><path class="cls-3" d="M881.78,404.1v.5c2.87,0,4.7,1.08,5,3,.53,3-2.83,7.57-9.36,9.92a17.38,17.38,0,0,1-6,.87c-1.13,0-2.24-.05-3.32-.1s-1.94-.1-2.83-.1a13.43,13.43,0,0,0-2.6.21,4.15,4.15,0,0,1-.92.11c-.65,0-.7-.22-.71-.3-.36-1.86,6.85-9.44,12.41-11.64a23.58,23.58,0,0,1,8.32-1.94v-.5m0,0a24.14,24.14,0,0,0-8.51,2c-6.49,2.57-16.16,12.91-11.51,12.91a4.51,4.51,0,0,0,1-.12,12.86,12.86,0,0,1,2.5-.2c1.84,0,4,.2,6.15.2a18.15,18.15,0,0,0,6.19-.9c11-3.95,13.12-13.86,4.16-13.86Z" transform="translate(-667.22 -372.03)"/><path class="cls-2" d="M855.21,400.44c-.31,0-.94-.28-1.76-2.18a16.45,16.45,0,0,0-4.64-5.81c-2.14-1.94-4.16-3.78-5-7.49-1.62-7.15-.71-10.22.34-11.53a3,3,0,0,1,2.43-1.14c3.11,0,7.41,3.71,9.58,8.27,2.51,5.28,1.74,16.29-.1,19.2C855.87,400.07,855.56,400.44,855.21,400.44Z" transform="translate(-667.22 -372.03)"/><path class="cls-3" d="M846.58,372.53h0c3,0,7.22,3.65,9.35,8.14,2.41,5.05,1.73,16.1-.08,19-.23.36-.46.56-.64.56s-.88-.53-1.53-2a16.76,16.76,0,0,0-4.7-5.9c-2.11-1.91-4.1-3.72-4.93-7.35-1.59-7.06-.72-10.06.29-11.33a2.76,2.76,0,0,1,2.24-1.05m0-.5c-3.13,0-5.15,3.53-3,13,1.54,6.84,7.13,7.52,9.65,13.34.71,1.64,1.38,2.33,2,2.33,2.72,0,4-14.22,1.17-20.24-2.26-4.76-6.61-8.42-9.8-8.42Z" transform="translate(-667.22 -372.03)"/><path class="cls-2" d="M1075.17,590.21q-.95,0-1-.45c-.32-1.89,7.13-8.14,11.56-9.69a33.55,33.55,0,0,1,10.29-1.85c2.88,0,4.71.61,5,1.67.26.86-.26,2.91-6.56,7-4.39,2.88-7.64,3.21-9.7,3.21a27.89,27.89,0,0,1-3.32-.25,23,23,0,0,0-2.52-.2,6.86,6.86,0,0,0-1.7.19A8.61,8.61,0,0,1,1075.17,590.21Z" transform="translate(-667.22 -372.03)"/><path class="cls-3" d="M1096,578v.5h0c2.72,0,4.5.56,4.78,1.49.19.64-.06,2.57-6.46,6.77-4.33,2.83-7.53,3.16-9.56,3.16a25.6,25.6,0,0,1-3.29-.25,23.53,23.53,0,0,0-2.55-.2,6.87,6.87,0,0,0-1.76.2,8.69,8.69,0,0,1-2,.32c-.18,0-.73,0-.77-.25-.28-1.62,6.83-7.81,11.39-9.4a33.39,33.39,0,0,1,10.21-1.84V578m0,0a33.72,33.72,0,0,0-10.37,1.86c-5.44,1.9-15.24,10.63-10.46,10.63a8.9,8.9,0,0,0,2.11-.34,6.87,6.87,0,0,1,1.64-.18c1.69,0,3.57.45,5.84.45a17.23,17.23,0,0,0,9.83-3.25c10.16-6.66,7.3-9.17,1.41-9.17Z" transform="translate(-667.22 -372.03)"/><path class="cls-2" d="M1084.5,558.75c-.2,0-.4-.07-.45-.52a27.86,27.86,0,0,0-.91-4.16c-.78-2.88-1.67-6.14-1.2-9.82.58-4.56,2.58-11.79,5.49-11.79,1.2,0,2.52,1.21,3.91,3.6a17.53,17.53,0,0,1-.39,17.16C1089.89,555.05,1086,558.75,1084.5,558.75Z" transform="translate(-667.22 -372.03)"/><path class="cls-3" d="M1087.43,532.71h0c1.09,0,2.37,1.2,3.69,3.48a17.24,17.24,0,0,1-.39,16.9c-1,1.75-4.87,5.41-6.23,5.41-.1,0-.17,0-.2-.3a29,29,0,0,0-.92-4.19,24.38,24.38,0,0,1-1.19-9.73c.61-4.8,2.64-11.57,5.24-11.57m0-.5c-3.4,0-5.29,8.49-5.74,12-.72,5.66,1.73,10.38,2.11,14,.06.52.31.74.7.74,1.65,0,5.66-3.93,6.66-5.65a17.69,17.69,0,0,0,.4-17.42c-1.57-2.67-2.94-3.72-4.13-3.72Z" transform="translate(-667.22 -372.03)"/><path class="cls-4" d="M829.29,421.07c7.07,5.43,7.15,13,11.67,19.09" transform="translate(-667.22 -372.03)"/><path class="cls-4" d="M830.58,429.51c2.18-.17,4.32.95,6.71,3.7" transform="translate(-667.22 -372.03)"/><path class="cls-4" d="M829.62,423.49a4.42,4.42,0,0,1,2.93.77" transform="translate(-667.22 -372.03)"/><path class="cls-4" d="M834,436.36a6.3,6.3,0,0,1,5.51,1.53" transform="translate(-667.22 -372.03)"/><path class="cls-4" d="M838.42,435.78c-.73-2.92,0-5.74,1.45-6.77" transform="translate(-667.22 -372.03)"/><path class="cls-4" d="M835.18,428.43a9.18,9.18,0,0,1,0-5.42" transform="translate(-667.22 -372.03)"/><path class="cls-4" d="M832,424.56" transform="translate(-667.22 -372.03)"/><path class="cls-4" d="M862.27,417.24c6.13-4,17.42-8.88,23.2-8.88" transform="translate(-667.22 -372.03)"/><path class="cls-4" d="M863.84,416.27a12,12,0,0,1,7.56.82" transform="translate(-667.22 -372.03)"/><path class="cls-4" d="M867.1,414.47a18.39,18.39,0,0,0,4.3-5.12" transform="translate(-667.22 -372.03)"/><path class="cls-4" d="M871.08,412.55a19.2,19.2,0,0,1,8.88,1.19" transform="translate(-667.22 -372.03)"/><path class="cls-4" d="M875.4,410.77a17.9,17.9,0,0,0,4.67-5" transform="translate(-667.22 -372.03)"/><path class="cls-4" d="M879.36,409.45a8.87,8.87,0,0,1,4.15.66" transform="translate(-667.22 -372.03)"/><path class="cls-4" d="M1075.61,589.41c6-5.19,18-8.72,23.79-8.72" transform="translate(-667.22 -372.03)"/><path class="cls-4" d="M1077.17,588.19c2.92-.77,7.75-1,9.9.35" transform="translate(-667.22 -372.03)"/><path class="cls-4" d="M1080.94,585.91a13.14,13.14,0,0,0,4.5-4.71" transform="translate(-667.22 -372.03)"/><path class="cls-4" d="M1085.44,583.89a11.41,11.41,0,0,1,7.86,2" transform="translate(-667.22 -372.03)"/><path class="cls-4" d="M1089.82,582.39c2.63-1,3.18-1.7,3.8-2.75" transform="translate(-667.22 -372.03)"/><path class="cls-4" d="M1093.82,581.38c2.22-.1,3,.6,3.36,1.2" transform="translate(-667.22 -372.03)"/><path class="cls-4" d="M1085.15,557.81c2.48-7.92,4.56-16.57,2.14-24.18" transform="translate(-667.22 -372.03)"/><path class="cls-4" d="M1085.68,556.09a14.32,14.32,0,0,0-2-7.79" transform="translate(-667.22 -372.03)"/><path class="cls-4" d="M1086.58,552.88c1.61-2.81,3.14-4,4.91-4.58" transform="translate(-667.22 -372.03)"/><path class="cls-4" d="M1088.19,544.4a5.21,5.21,0,0,1,3.3-4.39" transform="translate(-667.22 -372.03)"/><path class="cls-4" d="M1088.36,540.36c-.55-2.37-1.63-3.92-2.47-4.44" transform="translate(-667.22 -372.03)"/><path class="cls-4" d="M1087.47,549.11c-.29-3.67-.89-4.76-3-6.45" transform="translate(-667.22 -372.03)"/><path class="cls-4" d="M855.31,399.16c-1.27-8.45-3.42-19.6-9.49-24.78" transform="translate(-667.22 -372.03)"/><path class="cls-4" d="M855,396.91a12.11,12.11,0,0,0-5.37-5.73" transform="translate(-667.22 -372.03)"/><path class="cls-4" d="M854.21,392.77c-.11-3.23.71-5.85,1.89-7.29" transform="translate(-667.22 -372.03)"/><path class="cls-4" d="M851.68,383.59a4.93,4.93,0,0,1,1.48-5.53" transform="translate(-667.22 -372.03)"/><path class="cls-4" d="M849.87,379.59c-1.72-1.73-3.06-2.33-4-2.33" transform="translate(-667.22 -372.03)"/><path class="cls-4" d="M853.16,388.25c-2.18-3-4.78-2.39-7-4.66" transform="translate(-667.22 -372.03)"/></g><g id="Lettering_2"><g id="Lettering"><path class="cls-2" d="M667.22,790.75V685h63.6v8H676.37V733.3h51.45v8H676.37v49.5Z" transform="translate(-667.22 -372.03)"/><path class="cls-2" d="M745.22,698.8V687.25h12.3V698.8Zm1.5,92V718h9.15v72.75Z" transform="translate(-667.22 -372.03)"/><path class="cls-2" d="M780,790.75V718h9v17h-1.65a24.9,24.9,0,0,1,10.28-13.65,30.36,30.36,0,0,1,16.72-4.65q8.7,0,14.48,3.07a19.3,19.3,0,0,1,8.62,9.38q2.85,6.3,2.85,15.75v45.9h-9.15V745.6a32.21,32.21,0,0,0-1.87-11.85,13.32,13.32,0,0,0-5.93-6.9A21.16,21.16,0,0,0,813,724.6a25.53,25.53,0,0,0-12.6,3,20.48,20.48,0,0,0-8.32,8.55,27.61,27.61,0,0,0-2.93,13.05v41.55Z" transform="translate(-667.22 -372.03)"/><path class="cls-2" d="M891.77,792a31.27,31.27,0,0,1-17-4.58,29.9,29.9,0,0,1-11.25-13q-4-8.48-4-20t3.9-19.95A30.06,30.06,0,0,1,874.6,721.3a31.16,31.16,0,0,1,17.17-4.65q10.2,0,17.4,5.25a25,25,0,0,1,9.6,14.1h-1.65V685h9.15V790.75h-9V772.6h1.5a25,25,0,0,1-9.6,14.1Q902,792,891.77,792Zm1.2-7.65q11.25,0,17.78-7.8t6.52-22.2q0-14.25-6.52-22T893,724.45q-11,0-17.55,7.8t-6.6,22q0,14.4,6.6,22.2T893,784.3Z" transform="translate(-667.22 -372.03)"/><path class="cls-2" d="M952.07,790.75V685h7.35l70.35,94.8h-3.45V685h8.55V790.75h-7.2L957.32,696h3.3v94.8Z" transform="translate(-667.22 -372.03)"/><path class="cls-2" d="M1092.32,792q-11.25,0-19.35-4.5a30.4,30.4,0,0,1-12.45-12.9q-4.35-8.4-4.35-19.95a43,43,0,0,1,4.35-19.88,32.38,32.38,0,0,1,29.85-18.07q9.75,0,16.57,4.27a27.8,27.8,0,0,1,10.5,12.15q3.68,7.88,3.68,19v4.2h-58.35V749.5h52.65l-2.4,2q0-12.9-5.7-20.18t-16.8-7.27a24.46,24.46,0,0,0-14,3.82,23.41,23.41,0,0,0-8.55,10.5,38.89,38.89,0,0,0-2.85,15.38v.75q0,9.6,3.07,16.27a21.68,21.68,0,0,0,9.23,10.13A29.27,29.27,0,0,0,1092,784.3a37.64,37.64,0,0,0,12.67-2.1,36.45,36.45,0,0,0,11.63-7.05l3.6,6.9a35.09,35.09,0,0,1-12.3,7.2A44.86,44.86,0,0,1,1092.32,792Z" transform="translate(-667.22 -372.03)"/><path class="cls-2" d="M1163.42,792a53.1,53.1,0,0,1-10.58-1.05,41.59,41.59,0,0,1-9.6-3.15,28.71,28.71,0,0,1-7.57-5.1l3.3-6.75a38.11,38.11,0,0,0,7.8,4.87,38.75,38.75,0,0,0,8.32,2.78,41.8,41.8,0,0,0,8.63.9q9.15,0,14-3.45a10.88,10.88,0,0,0,4.8-9.3,9.24,9.24,0,0,0-3.08-7.43q-3.08-2.62-10-4.27l-13.05-3q-9.45-2.1-13.95-6.83t-4.5-12.22a19.06,19.06,0,0,1,3.37-11.25,21.67,21.67,0,0,1,9.6-7.43,36.63,36.63,0,0,1,14.33-2.62,40.68,40.68,0,0,1,9.6,1.12,35.62,35.62,0,0,1,8.55,3.23,25,25,0,0,1,6.75,5.25l-3.6,6.75a28.47,28.47,0,0,0-6.38-4.8,31.2,31.2,0,0,0-7.27-2.93,30.87,30.87,0,0,0-7.8-1q-8.7,0-13.43,3.6a11.61,11.61,0,0,0-4.72,9.75,10,10,0,0,0,2.92,7.5q2.92,2.85,9.23,4.35l13,3q9.75,2.25,14.55,6.67t4.8,11.93a18.42,18.42,0,0,1-3.45,11.17,21.37,21.37,0,0,1-9.75,7.2A40.52,40.52,0,0,1,1163.42,792Z" transform="translate(-667.22 -372.03)"/><path class="cls-2" d="M1238.12,792q-12.15,0-18.23-6.6t-6.07-18.9v-41.1h-14.4V718h14.4V695.5H1223V718h23.55v7.35H1223v39.9q0,9.15,3.75,14t12.45,4.8a18.2,18.2,0,0,0,4.95-.68c1.6-.45,3-.87,4.2-1.27l1.8,7.2a17.32,17.32,0,0,1-5.25,1.87A30.32,30.32,0,0,1,1238.12,792Z" transform="translate(-667.22 -372.03)"/></g><path class="cls-5" d="M965.57,775.17a2.73,2.73,0,0,1-.65-.09,66.54,66.54,0,0,0-10.09-1.49c-7.13-.7-15.23-1.5-23.1-5.69-9.1-4.85-23.14-15-22.06-21.64.52-3.18,4.47-5.41,11.72-6.62a33.56,33.56,0,0,1,5.56-.45,42.66,42.66,0,0,1,32.71,16c3,3.63,8.4,16.2,6.88,19.4A1,1,0,0,1,965.57,775.17Z" transform="translate(-667.22 -372.03)"/><path class="cls-6" d="M927,738.69v1h0a42.21,42.21,0,0,1,32.33,15.79c3.12,3.86,8.15,16,6.8,18.88a.46.46,0,0,1-.51.31,1.78,1.78,0,0,1-.52-.08,67.86,67.86,0,0,0-10.16-1.5c-7.1-.7-15.14-1.49-22.92-5.64-9-4.78-22.84-14.74-21.8-21.11.6-3.67,6.48-5.4,11.3-6.21a33.6,33.6,0,0,1,5.48-.44v-1m0,0a34.18,34.18,0,0,0-5.64.45c-28.24,4.73,0,23.79,10.19,29.2,12.09,6.44,24.77,5,33.3,7.22a2.8,2.8,0,0,0,.77.11c4.93,0-2-16.43-5.52-20.82A43.14,43.14,0,0,0,927,738.69Z" transform="translate(-667.22 -372.03)"/><path class="cls-7" d="M964.94,772.15c-15.65-12.3-33.31-24.34-52.44-25.4" transform="translate(-667.22 -372.03)"/><path class="cls-7" d="M961.53,769.51c-7.38-2.8-13.35-3.13-19.21-2.06" transform="translate(-667.22 -372.03)"/><path class="cls-7" d="M955.09,764.74c-4.91-6-6.24-10.43-6.08-14.92" transform="translate(-667.22 -372.03)"/><path class="cls-7" d="M937.44,753.9c-5.64-3.4-7-7.33-7-11.14" transform="translate(-667.22 -372.03)"/><path class="cls-7" d="M928.52,750.1c-5.78-.8-10.19.3-12.07,1.74" transform="translate(-667.22 -372.03)"/><path class="cls-7" d="M947.39,759.54c-8.48-2.49-11.44-2.07-17,1.26" transform="translate(-667.22 -372.03)"/></g></svg>