<svg id="Livello_1" data-name="Livello 1" xmlns="http://www.w3.org/2000/svg" viewBox="0 0 280.53 286.36"><defs><style>.cls-1{fill:#757575;}.cls-2{fill:#c9dd5e;}.cls-2,.cls-3,.cls-4{stroke:#afbc53;stroke-width:0.25px;}.cls-2,.cls-3{stroke-miterlimit:10;}.cls-3,.cls-4{fill:none;stroke-linecap:round;}.cls-4{stroke-linejoin:round;}</style></defs><path class="cls-1" d="M1149.66,424.9a18,18,0,0,0-9.1,2.38,31.89,31.89,0,0,0-7.48,5.88,89.88,89.88,0,0,0-11.48,15.38c-3.41,5.45-6.51,11.1-10,16.61-.89,1.37-1.8,2.74-2.83,4.06s-2,2.55-3.09,3.79c-2.1,2.49-4.28,4.91-6.49,7.28-4.42,4.76-9,9.36-13.65,13.87l-3.51,3.36c-1.2,1.1-2.3,2.24-3.62,3.31a41.68,41.68,0,0,1-3.93,3.12,45.5,45.5,0,0,1-4.18,2.74,83.92,83.92,0,0,1-18.18,7.84,136.78,136.78,0,0,1-19.19,4.34,241,241,0,0,1-39,2.51,370.44,370.44,0,0,1-39-2.46c-3.23-.38-6.46-.79-9.7-1.28s-6.44-1-9.74-1.67l-1.26-.29c-.43-.1-.93-.25-1.39-.38-.83-.3-1.68-.57-2.49-.91a39.71,39.71,0,0,1-4.72-2.32,50.91,50.91,0,0,1-8.36-6,79.84,79.84,0,0,1-13.14-15.3,116.18,116.18,0,0,1-9.62-17.48,113.72,113.72,0,0,1-6.55-18.89c-.41-1.65-.74-3.25-1.08-4.84s-.7-3.18-1-4.79l-1-4.8-.85-4.84c-1.09-6.45-1.93-13-2.46-19.54a139.3,139.3,0,0,1-.28-19.93,81.29,81.29,0,0,1,1.25-10.09,36.69,36.69,0,0,1,3.86-10.13,97,97,0,0,1,11.68-16.47A271.31,271.31,0,0,1,926,331.22q14.76-12.87,30.63-24.38c2.66-1.9,5.35-3.78,8.11-5.61q2.07-1.37,4.23-2.68c.75-.44,1.45-.87,2.24-1.31s1.59-.83,2.39-1.21a52.34,52.34,0,0,1,9.93-3.56,35.15,35.15,0,0,1,5.46-.9,28.65,28.65,0,0,1,2.94-.05l1.55.13,1.06.11a30.19,30.19,0,0,1,5.48.88,31,31,0,0,1,5.26,1.93,54,54,0,0,1,9,5.41c2.8,2,5.31,4.09,7.85,6.18s5,4.23,7.45,6.38q14.67,12.91,28.56,26.55c4.63,4.58,9.21,9.18,13.69,14a191.21,191.21,0,0,1,12.93,15,95.07,95.07,0,0,1,10.73,17.23,50.3,50.3,0,0,1,3.21,10.11,97.72,97.72,0,0,1,1.6,10,188.55,188.55,0,0,1,1,19.77c.1,6.49.06,13-.06,19.53-.37,13-1.1,26.22-4,39.31a92.17,92.17,0,0,1-6.41,19.2c-.69,1.55-1.56,3-2.33,4.55s-1.77,2.93-2.65,4.4a25.59,25.59,0,0,1-1.93,2.42c-.71.67-1.39,1.43-2.14,2l-2.26,1.71c-.78.48-1.57.94-2.35,1.4-6.36,3.57-13.13,5.16-19.79,6.14-1.67.32-3.34.43-5,.59s-3.34.37-5,.41l-5,.15c-.83,0-1.67.06-2.5.06l-2.47-.06c-3.3-.11-6.62-.1-9.89-.43l-4.92-.38c-.82-.07-1.64-.12-2.46-.2l-2.44-.3c-3.25-.42-6.51-.77-9.75-1.25l-9.66-1.62c-1.62-.25-3.22-.58-4.81-.92l-4.79-1c-3.18-.68-6.39-1.28-9.54-2.1-6.32-1.56-12.66-3-19-4.8a226.53,226.53,0,0,1-36.89-13.56,123.58,123.58,0,0,1-17.17-10A76,76,0,0,1,891.29,477a51.72,51.72,0,0,1-9.84-17.82,76.62,76.62,0,0,1-2.19-9.8c-.29-1.62-.53-3.24-.77-4.86s-.44-3.24-.64-4.86c-.77-6.49-1.36-13-1.63-19.5-.2-3.25-.2-6.51-.32-9.77s0-6.51.07-9.76a304.39,304.39,0,0,1,3.46-38.86l.79-4.81c.25-1.6.51-3.21.85-4.8.65-3.18,1.25-6.37,1.94-9.55,1.43-6.35,3.13-12.61,5-18.84,3.66-12.43,7.84-24.69,12.32-36.82s9.36-24.12,14.4-36a.25.25,0,0,1,.32-.14.25.25,0,0,1,.14.33c-4.83,12-9.47,24-13.77,36.21s-8.33,24.46-11.82,36.89c-1.74,6.22-3.34,12.47-4.68,18.78-.65,3.16-1.2,6.35-1.81,9.51-.31,1.59-.56,3.18-.79,4.78l-.72,4.79a303.65,303.65,0,0,0-2.95,38.58c-.05,3.22,0,6.45,0,9.68s.17,6.45.39,9.67c.32,6.44,1,12.87,1.76,19.27.21,1.6.42,3.2.68,4.79s.49,3.18.79,4.77a74.37,74.37,0,0,0,2.17,9.39,48.51,48.51,0,0,0,9.37,16.67,72.58,72.58,0,0,0,14.35,12.8,120.71,120.71,0,0,0,16.76,9.58,222.67,222.67,0,0,0,36.38,13c6.21,1.73,12.53,3.11,18.8,4.61,3.13.79,6.31,1.35,9.47,2l4.75,1c1.58.33,3.16.64,4.76.88l9.55,1.55c3.2.46,6.4.79,9.6,1.19l2.41.29c.8.09,1.6.13,2.41.19l4.82.36c3.21.32,6.44.3,9.66.4l2.41,0c.81,0,1.61,0,2.42-.07l4.83-.16c1.61,0,3.2-.27,4.8-.4s3.21-.27,4.79-.58c6.34-.93,12.7-2.51,18.26-5.67l2-1.22,1.89-1.44c.63-.49,1.15-1.09,1.72-1.63a21.4,21.4,0,0,0,1.47-1.83c.82-1.38,1.69-2.73,2.48-4.13s1.53-2.82,2.18-4.29a87.36,87.36,0,0,0,6-18.27c2.77-12.59,3.48-25.54,3.8-38.43.1-6.45.12-12.91,0-19.36a185.37,185.37,0,0,0-1.06-19.3,92.35,92.35,0,0,0-1.55-9.51,44.85,44.85,0,0,0-2.9-9.12,89.63,89.63,0,0,0-10.23-16.29,184.55,184.55,0,0,0-12.64-14.61c-4.43-4.7-9-9.26-13.6-13.79q-13.82-13.56-28.3-26.44c-4.85-4.25-9.72-8.5-14.89-12.31s-10.92-7.07-17.36-7.38a23.91,23.91,0,0,0-9.45.57,47.58,47.58,0,0,0-9,3.21,70.79,70.79,0,0,0-8.3,4.86c-2.69,1.77-5.34,3.61-8,5.48q-15.72,11.3-30.36,24a269.36,269.36,0,0,0-27.54,27.14,92.94,92.94,0,0,0-11.19,15.67,32.42,32.42,0,0,0-3.45,8.88,76.62,76.62,0,0,0-1.21,9.56,135.16,135.16,0,0,0,.22,19.3c.5,6.43,1.33,12.83,2.35,19.2s2.28,12.71,3.67,19a109.13,109.13,0,0,0,6.18,18.27,112.41,112.41,0,0,0,9.17,17,76.34,76.34,0,0,0,12.41,14.7,47.65,47.65,0,0,0,7.73,5.69,36.49,36.49,0,0,0,4.29,2.14c.74.32,1.5.56,2.24.85s1.53.41,2.32.58c3.14.69,6.32,1.22,9.51,1.72s6.38.93,9.59,1.33a363.84,363.84,0,0,0,38.61,2.75c6.45.1,12.9,0,19.35-.3s12.87-.94,19.25-1.86a133.76,133.76,0,0,0,18.9-4,81.49,81.49,0,0,0,17.78-7.41,40.92,40.92,0,0,0,4.06-2.58,37.47,37.47,0,0,0,3.8-3c2.47-2.06,4.78-4.33,7.15-6.52,4.7-4.43,9.31-8.95,13.76-13.62,2.23-2.33,4.42-4.71,6.53-7.14q1.59-1.83,3.1-3.71c1-1.25,1.91-2.58,2.81-3.92,3.52-5.39,6.71-11,10.22-16.46a90.35,90.35,0,0,1,11.87-15.34,32.77,32.77,0,0,1,7.75-5.88,18.58,18.58,0,0,1,9.43-2.29.26.26,0,0,1,.25.26.25.25,0,0,1-.26.24Z" transform="translate(-869.39 -242.89)"/><path class="cls-1" d="M1119.75,398.88a182.33,182.33,0,0,0,1-24.28,78.31,78.31,0,0,0-1.17-12.05,27.39,27.39,0,0,0-4.93-10.89,73.1,73.1,0,0,0-7.91-9.16c-2.86-2.86-5.87-5.57-8.93-8.23s-6.2-5.22-9.32-7.83l-9.27-7.89L1042,287.05c-6.21-5.22-12.27-10.68-19.36-14.43a33.79,33.79,0,0,0-5.5-2.21,27.38,27.38,0,0,0-5.84-1c-2-.11-4-.09-6,0a39.51,39.51,0,0,0-17.21,4.3,56.65,56.65,0,0,0-10,6.61c-6.18,5.19-12.4,10.48-18.65,15.64-12.5,10.38-25.13,20.6-37.75,30.82l-2.35,1.91c-.75.64-1.51,1.25-2.22,1.94-1.46,1.33-2.82,2.77-4.15,4.24a74.2,74.2,0,0,0-7.2,9.46,60,60,0,0,0-5.46,10.44,34,34,0,0,0-1.65,5.51c-.21.9-.33,1.9-.46,2.89l-.38,3a115.84,115.84,0,0,0,5.17,47.17c4.91,15.11,12.8,29.33,23.66,40.82a93.12,93.12,0,0,0,18.14,15A91.59,91.59,0,0,0,966.18,479a103.18,103.18,0,0,0,23.13,4.38,132.26,132.26,0,0,0,23.71-.31A125.37,125.37,0,0,0,1058.16,470c13.88-7.18,26.14-17.57,34.23-30.68a69.14,69.14,0,0,0,5.27-10.23,81.25,81.25,0,0,0,3.66-11,104.19,104.19,0,0,0,3.46-23.08,123.71,123.71,0,0,0-1.52-23.42c-1.24-7.8-3.11-15.52-5.14-23.38a11.34,11.34,0,0,0-.4-1.38l-.41-1.32c-.3-.87-.49-1.75-.88-2.63l-1.09-2.63c-.36-.87-.72-1.75-1.18-2.61l-1.31-2.59c-.42-.87-.86-1.74-1.37-2.58-1-1.68-1.91-3.41-3-5.07a191.55,191.55,0,0,0-13.84-19.33,292.73,292.73,0,0,0-33-34.72c-1.46-1.37-3-2.62-4.52-3.94s-3-2.63-4.58-3.88c-3.13-2.48-6.19-5.06-9.42-7.4l-2.4-1.8-1.2-.89-.6-.45-.52-.37a18.49,18.49,0,0,0-4.4-2.2,37.47,37.47,0,0,0-10.71-1.62c-.48,0-1,0-1.45,0h-.72c-.25,0-.38,0-.57,0a13.68,13.68,0,0,0-2.28.29,28,28,0,0,0-5,1.64,65.42,65.42,0,0,0-9.95,5.53c-3.25,2.15-6.43,4.5-9.54,7s-6.12,5-9.27,7.7c-12.36,10.34-24.23,21.38-36.61,32.05-6.18,5.34-12.49,10.56-19,15.57-3.26,2.53-6.41,4.92-9.53,7.46s-6.19,5.1-9.12,7.76c-1.46,1.33-2.91,2.67-4.23,4a38.88,38.88,0,0,0-3.63,4.3,54.64,54.64,0,0,0-5.82,9.84,49.09,49.09,0,0,0-2,5.29,42.83,42.83,0,0,0-1.24,5.47,35.64,35.64,0,0,0-.39,5.55c0,1.92.1,4,.14,6,.39,16.24.76,32.44,1.54,48.62s1.87,32.33,3.82,48.35c.55,4,1.06,8,1.75,12l.48,3,.58,2.95c.41,1.95.73,4,1.23,5.81a54,54,0,0,0,4.25,10.88,46.76,46.76,0,0,0,3,5,31.47,31.47,0,0,0,3.72,4.31,26.79,26.79,0,0,0,9.79,5.58,47.81,47.81,0,0,0,11.46,2.33c1.89.14,4,.17,6,.25l6.08.2,12.17.39c32.45,1,64.91,1.77,97.38,2.13l24.35.2a220.34,220.34,0,0,0,24.25-1,69.61,69.61,0,0,0,11.87-2.12,21.13,21.13,0,0,0,5.47-2.27,18.07,18.07,0,0,0,4.43-3.89c2.53-3.06,3.78-7,4.47-10.93a74.74,74.74,0,0,0,.91-12.06c.2-16.25,1.18-32.48,2.54-48.66S1117.92,415,1119.75,398.88Zm.5.06c-1.8,16.13-3.61,32.27-4.94,48.45s-2.27,32.39-2.44,48.61a74.29,74.29,0,0,1-.9,12.18c-.68,4-1.93,8.07-4.57,11.29a18.94,18.94,0,0,1-4.6,4.1,22.31,22.31,0,0,1-5.66,2.38,70.33,70.33,0,0,1-12,2.22,225.08,225.08,0,0,1-24.35,1.08l-24.36-.08q-48.71-.27-97.41-1.36c-8.12-.2-16.22-.34-24.36-.64a49.7,49.7,0,0,1-12-2.34,29.14,29.14,0,0,1-10.68-6,35.62,35.62,0,0,1-4.06-4.62,50.85,50.85,0,0,1-3.24-5.21,57.18,57.18,0,0,1-4.56-11.35c-1.89-7.94-3.2-16-4.3-24-2.1-16.12-3.36-32.33-4.26-48.54s-1.42-32.46-1.94-48.68c-.06-2-.16-4.05-.19-6.09a37,37,0,0,1,.37-6.14,47.14,47.14,0,0,1,1.3-6,52.91,52.91,0,0,1,2.12-5.76,59.12,59.12,0,0,1,6.14-10.59,58.09,58.09,0,0,1,8.3-9c6-5.51,12.36-10.58,18.76-15.57s12.58-10.24,18.69-15.57c12.24-10.65,24.08-21.78,36.49-32.28a199.85,199.85,0,0,1,19.16-15.09,70.71,70.71,0,0,1,10.68-6,31.46,31.46,0,0,1,5.86-1.94,17.78,17.78,0,0,1,3.09-.4c1.06-.05,2,0,3.08,0a42.13,42.13,0,0,1,12.13,1.85,23,23,0,0,1,5.54,2.77c1.68,1.18,3.28,2.42,4.92,3.63,3.29,2.38,6.42,5,9.6,7.52,1.6,1.26,3.11,2.62,4.66,3.93s3.12,2.61,4.61,4A297.29,297.29,0,0,1,1078.56,305a196.68,196.68,0,0,1,14.18,19.86c1.08,1.73,2,3.53,3.07,5.29.53.87,1,1.78,1.44,2.7l1.36,2.73a30.65,30.65,0,0,1,1.26,2.8l1.17,2.83c.4.94.64,1.95,1,2.92s.65,1.95.88,2.94c2,7.86,3.92,15.78,5.18,23.83a127.27,127.27,0,0,1,1.52,24.36,106.42,106.42,0,0,1-3.69,24.12,79.08,79.08,0,0,1-9.6,22.42,76.88,76.88,0,0,1-7.27,9.84,82,82,0,0,1-8.63,8.66c-1.5,1.38-3.14,2.61-4.72,3.89s-3.27,2.44-5,3.54-3.44,2.19-5.17,3.26-3.53,2-5.37,2.93a128.13,128.13,0,0,1-46.75,13.16,135.28,135.28,0,0,1-24.4.1,105.54,105.54,0,0,1-23.92-4.75A94.22,94.22,0,0,1,943,472a96.73,96.73,0,0,1-18.66-15.7,110.94,110.94,0,0,1-24-42.15,118.23,118.23,0,0,1-4.88-48.26l.43-3a28.38,28.38,0,0,1,.5-3,36.23,36.23,0,0,1,1.81-5.87A63.41,63.41,0,0,1,904,343.16a71.24,71.24,0,0,1,16.52-17.89c12.7-10.11,25.41-20.21,38-30.48,6.3-5.12,12.52-10.31,18.79-15.49a58.31,58.31,0,0,1,10.24-6.68,40.2,40.2,0,0,1,11.62-3.79,41.64,41.64,0,0,1,6.1-.54c2,0,4.07-.05,6.11.08a28.34,28.34,0,0,1,6.06,1,33.46,33.46,0,0,1,5.69,2.32c7.23,3.87,13.3,9.42,19.47,14.66l37,31.64,9.25,7.92c3.11,2.61,6.25,5.19,9.31,7.86s6.08,5.39,9,8.28a72.32,72.32,0,0,1,8,9.25,28,28,0,0,1,5,11.12,78.58,78.58,0,0,1,1.16,12.15A183.41,183.41,0,0,1,1120.25,398.94Z" transform="translate(-869.39 -242.89)"/><path class="cls-2" d="M870.56,294.67c-3.6-6.82,5.7-8.46,12.93.28,6.82,8.23,4.31,14.61,4.8,18.47.53,4.2-8.73.37-12.76-5.6C871.65,302.07,873,299.29,870.56,294.67Z" transform="translate(-869.39 -242.89)"/><path class="cls-2" d="M906.62,289.84c-6.87,1.42,3.6-10.06,10.49-12.79,18-7.11,18,7,4.34,11.9C916.32,290.79,910.25,289.09,906.62,289.84Z" transform="translate(-869.39 -242.89)"/><path class="cls-2" d="M897.06,269.34c-2.53-5.82-8.11-6.5-9.66-13.34-4.32-19.11,8.33-14,12.82-4.57C903.71,258.78,901,278.38,897.06,269.34Z" transform="translate(-869.39 -242.89)"/><path class="cls-2" d="M1121.12,461.11c-9.09,2.32,2.31-8.19,8.34-10.3,9.6-3.35,24.49-2.86,9,7.31C1129.77,463.8,1125.07,460.09,1121.12,461.11Z" transform="translate(-869.39 -242.89)"/><path class="cls-2" d="M1127.64,429.24c-.39-3.66-2.83-8.38-2.11-14,.6-4.75,3.85-18.59,9.86-8.29a17.68,17.68,0,0,1-.39,17.42C1133.76,426.46,1127.92,432,1127.64,429.24Z" transform="translate(-869.39 -242.89)"/><path class="cls-3" d="M873.13,292.05c7.06,5.43,7.14,13,11.67,19.1" transform="translate(-869.39 -242.89)"/><path class="cls-3" d="M874.41,300.49c2.18-.17,4.32.95,6.71,3.7" transform="translate(-869.39 -242.89)"/><path class="cls-3" d="M873.45,294.47a4.44,4.44,0,0,1,2.94.77" transform="translate(-869.39 -242.89)"/><path class="cls-3" d="M877.83,307.34a6.28,6.28,0,0,1,5.5,1.53" transform="translate(-869.39 -242.89)"/><path class="cls-3" d="M882.25,306.76c-.72-2.92,0-5.74,1.46-6.77" transform="translate(-869.39 -242.89)"/><path class="cls-3" d="M879,299.41a9.34,9.34,0,0,1,0-5.42" transform="translate(-869.39 -242.89)"/><path class="cls-3" d="M875.85,295.55" transform="translate(-869.39 -242.89)"/><path class="cls-4" d="M906.1,288.22c6.14-4,17.43-8.87,23.21-8.87" transform="translate(-869.39 -242.89)"/><path class="cls-4" d="M907.67,287.25a12,12,0,0,1,7.57.82" transform="translate(-869.39 -242.89)"/><path class="cls-4" d="M910.94,285.45a18.39,18.39,0,0,0,4.3-5.12" transform="translate(-869.39 -242.89)"/><path class="cls-4" d="M914.92,283.53a19.35,19.35,0,0,1,8.88,1.19" transform="translate(-869.39 -242.89)"/><path class="cls-4" d="M919.24,281.75a18,18,0,0,0,4.67-5" transform="translate(-869.39 -242.89)"/><path class="cls-4" d="M923.19,280.43a8.93,8.93,0,0,1,4.16.66" transform="translate(-869.39 -242.89)"/><path class="cls-4" d="M1119.44,460.4c6-5.2,18-8.73,23.8-8.73" transform="translate(-869.39 -242.89)"/><path class="cls-4" d="M1121,459.17c2.92-.77,7.75-1,9.9.35" transform="translate(-869.39 -242.89)"/><path class="cls-4" d="M1124.77,456.89a13,13,0,0,0,4.5-4.71" transform="translate(-869.39 -242.89)"/><path class="cls-4" d="M1129.27,454.87a11.44,11.44,0,0,1,7.87,2" transform="translate(-869.39 -242.89)"/><path class="cls-4" d="M1133.66,453.37c2.63-1,3.18-1.7,3.79-2.75" transform="translate(-869.39 -242.89)"/><path class="cls-4" d="M1137.66,452.36c2.22-.1,3,.6,3.36,1.2" transform="translate(-869.39 -242.89)"/><path class="cls-4" d="M1129,428.79c2.48-7.92,4.56-16.57,2.15-24.18" transform="translate(-869.39 -242.89)"/><path class="cls-4" d="M1129.51,427.07a14.32,14.32,0,0,0-2-7.79" transform="translate(-869.39 -242.89)"/><path class="cls-4" d="M1130.42,423.86c1.61-2.81,3.13-4,4.91-4.58" transform="translate(-869.39 -242.89)"/><path class="cls-4" d="M1132,415.38a5.19,5.19,0,0,1,3.3-4.39" transform="translate(-869.39 -242.89)"/><path class="cls-4" d="M1132.19,411.34c-.54-2.37-1.62-3.92-2.46-4.44" transform="translate(-869.39 -242.89)"/><path class="cls-4" d="M1131.3,420.09c-.28-3.67-.88-4.76-3-6.45" transform="translate(-869.39 -242.89)"/><path class="cls-4" d="M899.15,270.14c-1.27-8.45-3.42-19.6-9.5-24.78" transform="translate(-869.39 -242.89)"/><path class="cls-4" d="M898.8,267.89a12.15,12.15,0,0,0-5.37-5.73" transform="translate(-869.39 -242.89)"/><path class="cls-4" d="M898.05,263.75a11.15,11.15,0,0,1,1.89-7.29" transform="translate(-869.39 -242.89)"/><path class="cls-4" d="M895.52,254.57a4.9,4.9,0,0,1,1.48-5.52" transform="translate(-869.39 -242.89)"/><path class="cls-4" d="M893.71,250.57c-1.72-1.73-3.07-2.33-4.06-2.33" transform="translate(-869.39 -242.89)"/><path class="cls-4" d="M897,259.23c-2.18-3-4.78-2.39-7-4.66" transform="translate(-869.39 -242.89)"/></svg>